<svg width="15" height="15" viewBox="0 0 15 15" xmlns="http://www.w3.org/2000/svg"><title>icon_info</title><path d="M7.389.448C3.49.448.329 3.633.329 7.56c0 3.928 3.161 7.11 7.06 7.11 3.898 0 7.06-3.183 7.06-7.11 0-3.927-3.162-7.112-7.06-7.112zm-.164 2.334c.682 0 1.235.556 1.235 1.243s-.553 1.243-1.235 1.243a1.238 1.238 0 0 1-1.234-1.243c0-.687.552-1.243 1.234-1.243zm2.213 8.82H5.482v-.286c.262-.048.449-.089.56-.124a.858.858 0 0 0 .282-.147.603.603 0 0 0 .181-.286c.044-.13.067-.33.067-.604V7.603c0-.25-.007-.45-.02-.603a.62.62 0 0 0-.142-.366.746.746 0 0 0-.369-.205 4.772 4.772 0 0 0-.7-.114v-.31l2.35-.053h.617v4.186c0 .335.026.568.08.7.054.13.157.23.309.298.151.068.398.127.741.179v.287z" fill="#181818" fill-rule="evenodd"/></svg>