<svg id="Calque_1" xmlns="http://www.w3.org/2000/svg" xmlns:xlink="http://www.w3.org/1999/xlink" viewBox="0 0 100 31.2"><style>.st0{clip-path:url(#SVGID_2_)}.st1{clip-path:url(#SVGID_4_);fill:#d8d8d8}.st2{clip-path:url(#SVGID_6_)}.st3{clip-path:url(#SVGID_8_);fill:#d8d8d8}</style><defs><path id="SVGID_1_" d="M-39-149.7H8v2.8h-47z"/></defs><clipPath id="SVGID_2_"><use xlink:href="#SVGID_1_" overflow="visible"/></clipPath><g class="st0"><defs><path id="SVGID_3_" d="M-68-180.7h375v667H-68z"/></defs><clipPath id="SVGID_4_"><use xlink:href="#SVGID_3_" overflow="visible"/></clipPath><path class="st1" d="M-44-154.7h57v12.8h-57z"/></g><defs><path id="SVGID_5_" d="M-39-140.4H8v2.8h-47z"/></defs><clipPath id="SVGID_6_"><use xlink:href="#SVGID_5_" overflow="visible"/></clipPath><g class="st2"><defs><path id="SVGID_7_" d="M-68-180.7h375v667H-68z"/></defs><clipPath id="SVGID_8_"><use xlink:href="#SVGID_7_" overflow="visible"/></clipPath><path class="st3" d="M-44-145.4h57v12.8h-57z"/></g><path d="M93.7 9.1H6.4C4.5 9.1 3 7.6 3 5.7s1.5-3.4 3.4-3.4h87.3c1.9 0 3.4 1.5 3.4 3.4s-1.6 3.4-3.4 3.4zm0 18.7H6.4c-1.9 0-3.4-1.5-3.4-3.4S4.5 21 6.4 21h87.3c1.9 0 3.4 1.5 3.4 3.4s-1.6 3.4-3.4 3.4z"/></svg>