<?xml version="1.0" encoding="utf-8"?>
<!-- Generator: Adobe Illustrator 21.0.0, SVG Export Plug-In . SVG Version: 6.00 Build 0)  -->
<svg version="1.1" id="Calque_1" xmlns="http://www.w3.org/2000/svg" xmlns:xlink="http://www.w3.org/1999/xlink" x="0px" y="0px"
	 viewBox="0 0 400 400" style="enable-background:new 0 0 400 400;" xml:space="preserve">
<path d="M197.3,396.8c-29.8,0-59.5,0.6-89.3-0.1C46.8,395.2,4.8,353.8,4,293.1c-0.9-62.4-1-124.8,0.1-187.2C5,48,46.6,6,104.4,4.9
	c63.4-1.2,126.8-1.2,190.1,0c57.5,1,100,43.2,101.1,100.4c1.2,63.3,1.2,126.8,0,190.1c-1,57.5-42.9,99.2-100.5,101.1
	C262.6,397.5,229.9,396.7,197.3,396.8C197.3,396.7,197.3,396.7,197.3,396.8z M350.6,203.6c1.3-84.3-65.5-153.1-149.3-153.8
	c-83-0.7-150.9,65.3-152.2,148c-1.4,84.1,65.6,152.8,149.5,153.6C281.9,352.2,349.3,286.6,350.6,203.6z"/>
</svg>
