<?xml version="1.0" encoding="UTF-8"?>
<svg width="15px" height="15px" viewBox="0 0 15 15" version="1.1" xmlns="http://www.w3.org/2000/svg" xmlns:xlink="http://www.w3.org/1999/xlink">
    <!-- Generator: Sketch 41 (35326) - http://www.bohemiancoding.com/sketch -->
    <title>icon_info</title>
    <desc>Created with Sketch.</desc>
    <defs></defs>
    <g id="Page-1" stroke="none" stroke-width="1" fill="none" fill-rule="evenodd">
        <g id="icon_info" transform="translate(7.000000, 7.500000) rotate(-270.000000) translate(-7.000000, -7.500000) translate(-1.000000, 0.000000)" fill="#181818">
            <g id="Page-1">
                <g id="PRODUCT">
                    <g id="TEST-1">
                        <g id="Group-3">
                            <g id="noun_100319_cc">
                                <g id="Group">
                                    <path d="M8.05949911,3.00000004e-07 C4.16070806,3.00000004e-07 1.0000005,3.1841205 1.0000005,7.11179149 C1.0000005,11.0394625 4.16070806,14.2222225 8.05949911,14.2222225 C11.9578401,14.2222225 15.1189977,11.0390091 15.1189977,7.11179149 C15.1189977,3.18457389 11.9578401,3.00000004e-07 8.05949911,3.00000004e-07 L8.05949911,3.00000004e-07 Z M7.89568057,2.33357095 C8.57750771,2.33357095 9.13017023,2.88987388 9.13017023,3.57675159 C9.13017023,4.26317591 8.57750771,4.81947884 7.89568057,4.81947884 C7.21430349,4.81947884 6.66164097,4.26317591 6.66164097,3.57675159 C6.66119092,2.88987388 7.21385344,2.33357095 7.89568057,2.33357095 L7.89568057,2.33357095 Z M10.1085809,11.1537154 L6.15218334,11.1537154 L6.15218334,10.8671763 C6.41456302,10.8195709 6.60133415,10.7787663 6.71204668,10.7434023 C6.8227592,10.7080383 6.91681984,10.6595262 6.99467865,10.5965057 C7.07163735,10.5352988 7.13239423,10.4391812 7.17604917,10.31042 C7.21925405,10.1812054 7.2426567,9.97990261 7.2426567,9.70651168 L7.2426567,7.15486303 C7.2426567,6.9050481 7.23545589,6.70419871 7.22195436,6.55186148 C7.20845283,6.39952425 7.16164754,6.27756378 7.08108842,6.18598009 C7.00007926,6.09484978 6.87676531,6.02593532 6.71204668,5.98059685 C6.54732804,5.93661855 6.31330157,5.89808085 6.01086735,5.86679731 L6.01086735,5.55668223 L8.36238337,5.50363623 L8.97850307,5.50363623 L8.97850307,9.68928307 C8.97850307,10.0247877 9.00505607,10.2578274 9.05906218,10.3888555 C9.11306829,10.5198837 9.2156799,10.6187215 9.36734706,10.687636 C9.51856416,10.7556437 9.76564211,10.8150371 10.109031,10.8662695 L10.109031,11.1537154 L10.1085809,11.1537154 Z" id="Shape" transform="translate(8.059499, 7.111111) rotate(-90.000000) translate(-8.059499, -7.111111) "></path>
                                </g>
                            </g>
                        </g>
                    </g>
                </g>
            </g>
        </g>
    </g>
</svg>