<?xml version="1.0" encoding="utf-8"?>
<!-- Generator: Adobe Illustrator 20.1.0, SVG Export Plug-In . SVG Version: 6.00 Build 0)  -->
<svg version="1.1" id="Calque_1" xmlns="http://www.w3.org/2000/svg" xmlns:xlink="http://www.w3.org/1999/xlink" x="0px" y="0px"
	 viewBox="0 0 100 31.2" style="enable-background:new 0 0 100 31.2;" xml:space="preserve">
<style type="text/css">
	.st0{clip-path:url(#SVGID_2_);}
	.st1{clip-path:url(#SVGID_4_);fill:#D8D8D8;}
	.st2{clip-path:url(#SVGID_6_);}
	.st3{clip-path:url(#SVGID_8_);fill:#D8D8D8;}
</style>
<g>
	<defs>
		<rect id="SVGID_1_" x="-39" y="-149.7" width="47" height="2.8"/>
	</defs>
	<clipPath id="SVGID_2_">
		<use xlink:href="#SVGID_1_"  style="overflow:visible;"/>
	</clipPath>
	<g class="st0">
		<defs>
			<rect id="SVGID_3_" x="-68" y="-180.7" width="375" height="667"/>
		</defs>
		<clipPath id="SVGID_4_">
			<use xlink:href="#SVGID_3_"  style="overflow:visible;"/>
		</clipPath>
		<rect x="-44" y="-154.7" class="st1" width="57" height="12.8"/>
	</g>
</g>
<g>
	<defs>
		<rect id="SVGID_5_" x="-39" y="-140.4" width="47" height="2.8"/>
	</defs>
	<clipPath id="SVGID_6_">
		<use xlink:href="#SVGID_5_"  style="overflow:visible;"/>
	</clipPath>
	<g class="st2">
		<defs>
			<rect id="SVGID_7_" x="-68" y="-180.7" width="375" height="667"/>
		</defs>
		<clipPath id="SVGID_8_">
			<use xlink:href="#SVGID_7_"  style="overflow:visible;"/>
		</clipPath>
		<rect x="-44" y="-145.4" class="st3" width="57" height="12.8"/>
	</g>
</g>
<g>
	<path d="M93.7,9.1H6.4C4.5,9.1,3,7.6,3,5.7s1.5-3.4,3.4-3.4h87.3c1.9,0,3.4,1.5,3.4,3.4S95.5,9.1,93.7,9.1z"/>
</g>
<g>
	<path d="M93.7,27.8H6.4c-1.9,0-3.4-1.5-3.4-3.4s1.5-3.4,3.4-3.4h87.3c1.9,0,3.4,1.5,3.4,3.4S95.5,27.8,93.7,27.8z"/>
</g>
</svg>
